<mxfile host="app.diagrams.net" modified="2021-03-05T17:32:54.586Z" agent="5.0 (Macintosh; Intel Mac OS X 10_15_7) AppleWebKit/537.36 (KHTML, like Gecko) Chrome/89.0.4389.72 Safari/537.36" etag="aDCz5A6rPe83-nYB6nAE" version="14.2.9" type="github">
  <diagram name="Page-1" id="9f46799a-70d6-7492-0946-bef42562c5a5">
    <mxGraphModel dx="2373" dy="1666" grid="1" gridSize="10" guides="1" tooltips="1" connect="1" arrows="1" fold="1" page="1" pageScale="1" pageWidth="1100" pageHeight="850" background="#ffffff" math="0" shadow="0">
      <root>
        <mxCell id="0" />
        <mxCell id="1" parent="0" />
        <mxCell id="w1PzRN34txhDw9UbGB5l-2" value=":Object" style="shape=umlLifeline;perimeter=lifelinePerimeter;whiteSpace=wrap;html=1;container=1;collapsible=0;recursiveResize=0;outlineConnect=0;" vertex="1" parent="1">
          <mxGeometry x="150" y="410" width="100" height="300" as="geometry" />
        </mxCell>
        <mxCell id="w1PzRN34txhDw9UbGB5l-3" value="&lt;b&gt;type FetchSessionInfo = &amp;lt;TokenType, SessionType&amp;gt;(idToken: TokenType) =&amp;gt; Promise&amp;lt;SessionType&amp;gt;&lt;br&gt;&lt;/b&gt;&lt;br&gt;&lt;div style=&quot;text-align: left&quot;&gt;A function which receives a token which was provided from an authentication service, and returns more info about the user which will be stored in the user&#39;s session.&lt;/div&gt;&lt;br&gt;&lt;b&gt;TokenType:&lt;/b&gt;&amp;nbsp;The type of the token received from auth service&lt;br&gt;&lt;b&gt;SessionType:&lt;/b&gt;&amp;nbsp;The type which will be returned and added to session" style="rounded=0;whiteSpace=wrap;html=1;" vertex="1" parent="1">
          <mxGeometry x="-150" y="70" width="720" height="220" as="geometry" />
        </mxCell>
      </root>
    </mxGraphModel>
  </diagram>
</mxfile>
